<?xml version="1.0" encoding="UTF-8"?>
<svg xmlns="http://www.w3.org/2000/svg" viewBox="0 0 181.65 209.76" width="181.65" height="209.76" role="img" aria-labelledby="title desc">
  <title id="title">foundryR hex sticker</title>
  <desc id="desc">A polished hex sticker for foundryR with an abstract Azure AI Foundry-inspired forge and connected model nodes.</desc>
  <defs>
    <clipPath id="hex-clip">
      <polygon points="90.82,1.5 180.15,53.19 180.15,156.57 90.82,208.26 1.5,156.57 1.5,53.19" />
    </clipPath>
    <linearGradient id="hex-bg" x1="20" y1="12" x2="160" y2="195" gradientUnits="userSpaceOnUse">
      <stop offset="0" stop-color="#33B8FF" />
      <stop offset="0.45" stop-color="#0078D4" />
      <stop offset="1" stop-color="#003E73" />
    </linearGradient>
    <linearGradient id="facet" x1="26" y1="22" x2="156" y2="188" gradientUnits="userSpaceOnUse">
      <stop offset="0" stop-color="#FFFFFF" stop-opacity="0.46" />
      <stop offset="0.55" stop-color="#FFFFFF" stop-opacity="0.08" />
      <stop offset="1" stop-color="#FFFFFF" stop-opacity="0" />
    </linearGradient>
    <linearGradient id="forge-core" x1="58" y1="59" x2="123" y2="130" gradientUnits="userSpaceOnUse">
      <stop offset="0" stop-color="#FFFFFF" />
      <stop offset="0.58" stop-color="#D9F6FF" />
      <stop offset="1" stop-color="#75DFFF" />
    </linearGradient>
    <linearGradient id="spark" x1="64" y1="112" x2="116" y2="137" gradientUnits="userSpaceOnUse">
      <stop offset="0" stop-color="#FFD36E" />
      <stop offset="1" stop-color="#FF8C42" />
    </linearGradient>
    <filter id="soft-shadow" x="-25%" y="-25%" width="150%" height="150%">
      <feDropShadow dx="0" dy="3" stdDeviation="4" flood-color="#002A4D" flood-opacity="0.28" />
    </filter>
    <filter id="label-shadow" x="-20%" y="-20%" width="140%" height="140%">
      <feDropShadow dx="0" dy="1" stdDeviation="1.4" flood-color="#002A4D" flood-opacity="0.4" />
    </filter>
  </defs>

  <polygon points="90.82,1.5 180.15,53.19 180.15,156.57 90.82,208.26 1.5,156.57 1.5,53.19" fill="url(#hex-bg)" stroke="#003E73" stroke-width="3" />
  <g clip-path="url(#hex-clip)">
    <path d="M-2 56L91 1.5L184 56V88C147 74 117 73 92 90C63 109 34 105 -2 89Z" fill="url(#facet)" />
    <path d="M14 154L90.82 198.7L167.65 154" fill="none" stroke="#FFFFFF" stroke-opacity="0.16" stroke-width="1.8" />
    <path d="M28 55L90.82 19L153.65 55" fill="none" stroke="#FFFFFF" stroke-opacity="0.2" stroke-width="1.2" />
    <circle cx="151" cy="73" r="32" fill="#FFFFFF" opacity="0.07" />
    <circle cx="38" cy="126" r="28" fill="#FFFFFF" opacity="0.05" />
  </g>

  <g transform="translate(90.82 84)" filter="url(#soft-shadow)">
    <path d="M-45 22C-36 9 -21 1 0 1S36 9 45 22L33 31C25 22 14 18 0 18S-25 22 -33 31Z" fill="#FFFFFF" opacity="0.92" />
    <path d="M-33 31H33L23 48H-23Z" fill="url(#spark)" />
    <text x="0" y="40.5" font-family="Segoe UI, Aptos, Calibri, Arial, sans-serif" font-size="17" font-weight="800" fill="#005A9E" text-anchor="middle" dominant-baseline="middle">R</text>
    <path d="M-20 -5L0 -34L20 -5L0 18Z" fill="url(#forge-core)" />
    <path d="M0 -34L20 -5L0 4L-20 -5Z" fill="#FFFFFF" opacity="0.38" />
    <path d="M-20 -5L0 4V18Z" fill="#62D8FF" opacity="0.82" />
    <path d="M20 -5L0 4V18Z" fill="#0078D4" opacity="0.62" />

    <g fill="none" stroke="#FFFFFF" stroke-linecap="round" stroke-width="2.4" opacity="0.78">
      <path d="M-46 -8L-20 -5" />
      <path d="M46 -8L20 -5" />
      <path d="M-28 -35L-8 -23" />
      <path d="M28 -35L8 -23" />
    </g>
    <g fill="#FFFFFF">
      <circle cx="-46" cy="-8" r="5.8" />
      <circle cx="46" cy="-8" r="5.8" />
      <circle cx="-28" cy="-35" r="5.2" />
      <circle cx="28" cy="-35" r="5.2" />
    </g>
  </g>

  <text x="90.82" y="163.5" font-family="Segoe UI, Aptos, Calibri, Arial, sans-serif" font-size="25" font-weight="750" fill="#FFFFFF" text-anchor="middle" letter-spacing="0.6" filter="url(#label-shadow)">foundryR</text>
  <text x="90.82" y="181.5" font-family="Segoe UI, Aptos, Calibri, Arial, sans-serif" font-size="10.5" font-weight="500" fill="#D9F6FF" text-anchor="middle" letter-spacing="0.85">Azure AI workflows</text>
</svg>
